<svg 
 xmlns="http://www.w3.org/2000/svg"
 xmlns:xlink="http://www.w3.org/1999/xlink"
 width="22px" height="22px">
<path fill-rule="evenodd"  fill="#d6d6d6"
 d="M7.582,10.434 L12.354,5.661 C12.641,5.374 13.107,5.374 13.395,5.661 C13.681,5.948 13.681,6.415 13.395,6.702 L9.140,10.956 L13.395,15.210 C13.681,15.497 13.681,15.963 13.395,16.251 C13.107,16.538 12.641,16.538 12.354,16.251 L7.582,11.479 C7.437,11.334 7.365,11.145 7.367,10.956 C7.367,10.766 7.437,10.579 7.582,10.434 ZM10.987,0.25 C17.53,0.25 21.972,4.943 21.972,11.10 C21.972,17.75 17.53,21.994 10.987,21.994 C4.921,21.994 0.3,17.75 0.3,11.10 C0.3,4.943 4.921,0.25 10.987,0.25 ZM10.987,20.522 C16.232,20.522 20.500,16.253 20.500,11.10 C20.500,5.765 16.232,1.497 10.987,1.497 C5.743,1.497 1.474,5.765 1.474,11.10 C1.474,16.253 5.743,20.522 10.987,20.522 Z"/>
</svg>