<svg 
 xmlns="http://www.w3.org/2000/svg"
 xmlns:xlink="http://www.w3.org/1999/xlink"
 width="22px" height="22px">
<path fill-rule="evenodd"  fill="#d6d6d6"
 d="M14.417,10.434 L9.644,5.661 C9.358,5.374 8.891,5.374 8.604,5.661 C8.317,5.948 8.317,6.415 8.604,6.702 L12.859,10.956 L8.604,15.210 C8.317,15.497 8.317,15.963 8.604,16.251 C8.891,16.538 9.358,16.538 9.644,16.251 L14.417,11.479 C14.562,11.334 14.634,11.145 14.632,10.956 C14.632,10.766 14.562,10.579 14.417,10.434 ZM11.12,0.25 C4.946,0.25 0.27,4.943 0.27,11.10 C0.27,17.75 4.946,21.994 11.12,21.994 C17.78,21.994 21.996,17.75 21.996,11.10 C21.996,4.943 17.78,0.25 11.12,0.25 ZM11.12,20.522 C5.767,20.522 1.499,16.253 1.499,11.10 C1.499,5.765 5.767,1.497 11.12,1.497 C16.256,1.497 20.524,5.765 20.524,11.10 C20.524,16.253 16.256,20.522 11.12,20.522 Z"/>
</svg>