<svg 
 xmlns="http://www.w3.org/2000/svg"
 xmlns:xlink="http://www.w3.org/1999/xlink"
 width="44px" height="44px">
<path fill-rule="evenodd"  fill="rgb(0, 0, 0)"
 d="M43.927,21.849 C43.927,20.229 42.760,18.500 41.321,17.993 C39.881,17.483 38.486,16.235 38.81,15.250 C37.675,14.268 37.780,12.395 38.436,11.16 C39.92,9.637 38.694,7.590 37.549,6.442 C36.404,5.296 34.356,4.901 32.976,5.557 C31.597,6.214 29.726,6.321 28.745,5.914 C27.764,5.509 26.517,4.112 26.5,2.673 C25.493,1.233 23.763,0.67 22.143,0.67 C20.523,0.67 18.794,1.233 18.282,2.673 C17.770,4.112 16.522,5.508 15.541,5.914 C14.559,6.321 12.689,6.214 11.310,5.557 C9.931,4.901 7.883,5.296 6.737,6.442 C5.591,7.590 5.194,9.637 5.850,11.16 C6.507,12.396 6.611,14.266 6.203,15.249 C5.796,16.231 4.405,17.483 2.966,17.993 C1.526,18.500 0.359,20.229 0.359,21.849 C0.359,23.470 1.526,25.198 2.966,25.710 C4.405,26.222 5.797,27.474 6.205,28.453 C6.613,29.434 6.507,31.304 5.850,32.683 C5.194,34.61 5.591,36.109 6.737,37.255 C7.883,38.402 9.930,38.799 11.310,38.142 C12.690,37.486 14.559,37.380 15.541,37.788 C16.523,38.196 17.770,39.594 18.282,41.32 C18.794,42.468 20.523,43.633 22.143,43.633 C23.763,43.633 25.493,42.468 26.5,41.32 C26.517,39.594 27.763,38.196 28.744,37.786 C29.725,37.378 31.597,37.486 32.976,38.142 C34.355,38.799 36.404,38.402 37.549,37.255 C38.694,36.109 39.92,34.61 38.436,32.683 C37.780,31.303 37.673,29.433 38.78,28.453 C38.484,27.471 39.881,26.222 41.321,25.710 C42.760,25.198 43.927,23.470 43.927,21.849 ZM22.143,29.841 C17.724,29.841 14.150,26.270 14.150,21.858 C14.150,17.440 17.724,13.865 22.143,13.865 C26.554,13.865 30.127,17.440 30.127,21.858 C30.127,26.270 26.554,29.841 22.143,29.841 Z"/>
</svg>