<svg 
 xmlns="http://www.w3.org/2000/svg"
 xmlns:xlink="http://www.w3.org/1999/xlink"
 width="52px" height="36px">
<path fill-rule="evenodd"  fill="rgb(0, 0, 0)"
 d="M51.411,14.340 L41.921,33.762 C41.326,34.984 39.728,35.983 38.378,35.983 L3.80,35.983 C1.730,35.983 1.111,34.981 1.710,33.762 L11.203,14.340 C11.796,13.117 13.391,12.115 14.741,12.115 L50.39,12.115 C51.394,12.115 52.8,13.117 51.411,14.340 ZM8.999,13.245 L0.738,30.147 L0.738,7.983 C0.738,6.618 1.843,5.500 3.195,5.502 L14.12,5.502 L14.12,4.57 C14.12,3.62 14.394,2.134 15.93,1.430 C15.793,0.722 16.717,0.334 17.700,0.334 L23.990,0.334 C26.19,0.334 27.674,2.1 27.674,4.57 L27.674,5.500 L38.491,5.500 C39.841,5.500 40.948,6.618 40.948,7.983 L40.948,9.636 L14.741,9.636 C12.474,9.636 10.2,11.186 8.999,13.245 ZM16.469,5.502 L25.217,5.502 L25.217,4.57 C25.217,3.369 24.666,2.815 23.988,2.815 L17.698,2.815 C17.372,2.815 17.62,2.944 16.832,3.183 C16.602,3.417 16.469,3.729 16.469,4.57 L16.469,5.502 Z"/>
</svg>