<svg 
 xmlns="http://www.w3.org/2000/svg"
 xmlns:xlink="http://www.w3.org/1999/xlink"
 width="44px" height="44px">
<path fill-rule="evenodd"  fill="#c7b299"
 d="M19.937,30.249 C25.625,30.249 30.249,24.620 30.249,17.702 C30.249,10.783 25.625,5.156 19.937,5.156 C17.124,5.156 14.497,6.502 12.542,8.944 C10.660,11.297 9.623,14.408 9.624,17.702 C9.624,24.622 14.250,30.249 19.937,30.249 ZM19.937,7.905 C24.106,7.905 27.499,12.300 27.499,17.702 C27.499,23.106 24.106,27.499 19.937,27.499 C15.768,27.499 12.374,23.106 12.372,17.702 C12.372,12.300 15.765,7.905 19.937,7.905 ZM28.598,28.874 C27.838,28.874 27.223,29.489 27.223,30.249 C27.223,31.9 27.838,31.624 28.598,31.624 C33.299,31.624 37.124,35.450 37.124,40.152 C37.124,40.755 36.630,41.249 36.23,41.249 L3.848,41.249 C3.243,41.249 2.749,40.758 2.749,40.152 C2.749,35.450 6.574,31.624 11.273,31.624 C12.33,31.624 12.648,31.9 12.648,30.249 C12.648,29.489 12.33,28.874 11.273,28.874 C5.57,28.874 0.0,33.934 0.0,40.152 C0.0,42.274 1.726,43.999 3.848,43.999 L36.23,43.999 C38.146,43.999 39.874,42.274 39.874,40.152 C39.874,33.934 34.815,28.874 28.598,28.874 ZM20.942,3.628 C21.926,3.45 22.976,2.751 24.62,2.751 C28.231,2.751 31.624,7.146 31.624,12.546 C31.624,13.516 31.517,14.466 31.305,15.375 C31.130,16.114 31.590,16.854 32.328,17.27 C32.434,17.53 32.539,17.63 32.644,17.63 C33.268,17.63 33.832,16.635 33.981,16.3 C34.240,14.888 34.374,13.726 34.374,12.546 C34.374,5.628 29.750,0.0 24.62,0.0 C22.498,0.0 20.938,0.435 19.544,1.260 C18.889,1.647 18.674,2.491 19.59,3.144 C19.446,3.797 20.291,4.14 20.942,3.628 ZM32.999,23.374 C32.239,23.374 31.624,23.989 31.624,24.749 C31.624,25.509 32.239,26.124 32.999,26.124 C37.700,26.124 41.250,30.42 41.250,34.742 C41.250,34.898 41.220,35.53 41.155,35.190 C40.848,35.886 41.161,36.697 41.854,37.6 C42.34,37.87 42.224,37.124 42.412,37.124 C42.939,37.124 43.441,36.818 43.669,36.308 C43.888,35.814 43.999,35.287 43.999,34.739 C43.999,28.527 39.216,23.374 32.999,23.374 Z"/>
</svg>