<svg 
 xmlns="http://www.w3.org/2000/svg"
 xmlns:xlink="http://www.w3.org/1999/xlink"
 width="48px" height="44px">
<path fill-rule="evenodd"  fill="#c7b299"
 d="M46.43,42.748 C46.43,43.439 45.490,43.999 44.809,43.999 L1.233,43.999 C0.552,43.999 0.0,43.439 0.0,42.748 C0.0,42.57 0.552,41.497 1.233,41.497 L44.809,41.497 C45.490,41.497 46.43,42.57 46.43,42.748 ZM21.769,22.212 C22.6,22.438 22.309,22.549 22.610,22.549 C22.940,22.549 23.270,22.416 23.513,22.151 C23.978,21.646 23.951,20.855 23.453,20.383 C21.337,18.382 21.790,14.314 23.608,12.14 C26.75,8.893 26.618,3.330 23.452,0.336 C22.954,0.134 22.173,0.106 21.708,0.398 C21.243,0.903 21.271,1.695 21.769,2.166 C23.669,3.963 23.627,7.988 21.682,10.449 C20.403,12.66 19.639,14.234 19.585,16.396 C19.526,18.759 20.302,20.824 21.769,22.212 ZM47.999,19.614 L47.999,22.14 C47.999,25.454 45.239,28.253 41.845,28.253 L39.91,28.253 C37.221,33.523 32.240,37.303 26.405,37.303 L19.638,37.303 C12.207,37.303 6.162,31.175 6.162,23.642 L6.162,11.231 C6.162,10.541 6.715,9.980 7.396,9.980 L15.311,9.980 C16.918,7.504 16.846,3.853 15.62,2.166 C14.564,1.694 14.537,0.903 15.2,0.398 C15.467,0.106 16.248,0.134 16.746,0.337 C19.910,3.330 19.368,8.893 16.901,12.14 C15.83,14.314 14.630,18.382 16.746,20.383 C17.244,20.855 17.271,21.646 16.807,22.151 C16.342,22.657 15.561,22.684 15.62,22.213 C13.595,20.824 12.819,18.759 12.878,16.396 C12.912,15.49 13.222,13.700 13.760,12.482 L8.630,12.482 L8.630,23.642 C8.630,29.796 13.568,34.801 19.638,34.801 L26.405,34.801 C32.474,34.801 37.413,29.795 37.413,23.642 L37.413,12.482 L28.134,12.482 C27.453,12.482 26.900,11.922 26.900,11.231 C26.900,10.541 27.453,9.980 28.134,9.980 L38.647,9.980 C39.328,9.980 39.881,10.541 39.881,11.231 L39.881,13.375 L41.845,13.375 C45.239,13.375 47.999,16.174 47.999,19.614 ZM45.531,19.614 C45.531,17.553 43.878,15.876 41.845,15.876 L39.881,15.876 L39.881,25.751 L41.845,25.751 C43.878,25.751 45.531,24.74 45.531,22.14 L45.531,19.614 Z"/>
</svg>