<svg 
 xmlns="http://www.w3.org/2000/svg"
 xmlns:xlink="http://www.w3.org/1999/xlink"
 width="44px" height="44px">
<path fill-rule="evenodd"  fill="#c7b299"
 d="M28.872,23.373 L15.125,23.373 C14.366,23.373 13.750,23.989 13.750,24.748 C13.750,25.507 14.366,26.123 15.125,26.123 L28.872,26.123 C29.632,26.123 30.247,25.507 30.247,24.748 C30.247,23.989 29.632,23.373 28.872,23.373 ZM31.622,15.125 L12.376,15.125 C11.617,15.125 11.1,15.741 11.1,16.500 C11.1,17.259 11.617,17.874 12.376,17.874 L31.622,17.874 C32.381,17.874 32.996,17.259 32.996,16.500 C32.996,15.741 32.381,15.125 31.622,15.125 ZM21.999,0.3 C9.852,0.3 0.3,8.619 0.3,19.249 C0.3,25.324 3.227,30.733 8.251,34.260 L8.251,43.995 L17.887,38.148 C19.221,38.368 20.592,38.496 21.999,38.496 C34.148,38.496 43.995,29.879 43.995,19.249 C43.995,8.619 34.148,0.3 21.999,0.3 ZM21.999,35.746 C20.393,35.746 18.843,35.559 17.352,35.242 L10.880,39.132 L10.966,32.756 C6.5,29.772 2.752,24.839 2.752,19.249 C2.752,10.139 11.369,2.752 21.999,2.752 C32.628,2.752 41.245,10.139 41.245,19.249 C41.245,28.360 32.628,35.746 21.999,35.746 Z"/>
</svg>