<svg 
 xmlns="http://www.w3.org/2000/svg"
 xmlns:xlink="http://www.w3.org/1999/xlink"
 width="44px" height="44px">
<path fill-rule="evenodd"  fill="#c7b299"
 d="M30.249,0.0 C29.825,0.0 29.402,0.26 28.982,0.64 C28.827,0.78 28.676,0.100 28.523,0.120 C28.265,0.151 28.10,0.191 27.755,0.237 C27.567,0.272 27.383,0.310 27.203,0.351 C26.992,0.400 26.782,0.456 26.573,0.513 C26.374,0.569 26.177,0.622 25.982,0.685 C25.805,0.743 25.633,0.813 25.458,0.878 C24.999,1.50 24.551,1.244 24.116,1.461 C24.30,1.503 23.940,1.542 23.855,1.588 C23.627,1.709 23.407,1.843 23.184,1.975 C23.63,2.50 22.939,2.119 22.819,2.198 C22.603,2.335 22.397,2.483 22.191,2.631 C22.128,2.677 22.63,2.718 21.999,2.764 C19.622,0.974 16.734,0.0 13.749,0.0 C6.167,0.0 0.0,6.166 0.0,13.749 C0.0,26.194 8.2,37.452 21.405,43.862 C21.594,43.953 21.797,43.999 21.999,43.999 C22.202,43.999 22.405,43.953 22.594,43.862 C35.997,37.452 43.999,26.194 43.999,13.749 C43.999,6.166 37.831,0.0 30.249,0.0 ZM21.999,41.96 C9.934,35.107 2.749,24.927 2.749,13.749 C2.749,7.684 7.684,2.749 13.749,2.749 C15.968,2.749 18.118,3.434 19.940,4.683 C17.805,7.106 16.499,10.275 16.499,13.749 C16.499,14.508 17.114,15.124 17.874,15.124 C18.635,15.124 19.249,14.508 19.249,13.749 C19.249,10.476 20.696,7.538 22.973,5.523 C23.184,5.334 23.404,5.157 23.627,4.986 C23.678,4.951 23.728,4.911 23.779,4.873 C23.997,4.714 24.222,4.561 24.451,4.420 C24.514,4.380 24.578,4.340 24.642,4.303 C24.864,4.170 25.90,4.46 25.320,3.930 C25.399,3.890 25.481,3.852 25.562,3.813 C25.782,3.709 26.5,3.610 26.232,3.521 C26.331,3.481 26.433,3.445 26.537,3.408 C26.750,3.331 26.965,3.258 27.183,3.195 C27.315,3.158 27.444,3.124 27.577,3.93 C27.775,3.43 27.969,2.992 28.171,2.953 C28.352,2.920 28.536,2.895 28.719,2.869 C28.874,2.845 29.30,2.819 29.189,2.803 C29.538,2.770 29.892,2.749 30.249,2.749 C36.315,2.749 41.249,7.684 41.249,13.749 C41.249,24.927 34.66,35.107 21.999,41.96 ZM30.249,5.499 C29.489,5.499 28.874,6.116 28.874,6.874 C28.874,7.633 29.489,8.249 30.249,8.249 C33.283,8.249 35.749,10.716 35.749,13.749 C35.749,14.508 36.364,15.124 37.124,15.124 C37.884,15.124 38.499,14.508 38.499,13.749 C38.499,9.199 34.799,5.499 30.249,5.499 Z"/>
</svg>