<svg 
 xmlns="http://www.w3.org/2000/svg"
 xmlns:xlink="http://www.w3.org/1999/xlink"
 width="54px" height="44px">
<path fill-rule="evenodd"  fill="#c7b299"
 d="M52.310,40.611 L1.690,40.611 C0.759,40.611 0.3,41.369 0.3,42.303 C0.3,43.237 0.759,43.995 1.690,43.995 L52.310,43.995 C53.241,43.995 53.998,43.237 53.998,42.303 C53.998,41.369 53.241,40.611 52.310,40.611 ZM28.687,6.771 L28.687,3.387 L32.62,3.387 C32.993,3.387 33.750,2.629 33.750,1.694 C33.750,0.761 32.993,0.3 32.62,0.3 L21.938,0.3 C21.7,0.3 20.251,0.761 20.251,1.694 C20.251,2.629 21.7,3.387 21.938,3.387 L25.313,3.387 C25.313,3.387 25.301,6.910 25.313,6.771 C11.193,7.649 0.3,19.462 0.3,33.843 C0.3,35.217 0.3,34.601 0.3,35.535 C0.3,36.469 0.759,37.227 1.690,37.227 L52.310,37.227 C53.241,37.227 53.998,36.469 53.998,35.535 C53.998,34.601 53.998,35.323 53.998,33.843 C53.998,19.462 42.807,7.649 28.687,6.771 ZM3.377,33.843 C3.377,20.760 13.954,10.155 27.0,10.155 C40.47,10.155 50.623,20.760 50.623,33.843 L3.377,33.843 Z"/>
</svg>