<svg 
 xmlns="http://www.w3.org/2000/svg"
 xmlns:xlink="http://www.w3.org/1999/xlink"
 width="26px" height="26px">
<path fill-rule="evenodd"  fill="#ffffff"
 d="M23.499,11.242 L21.573,13.169 L18.386,16.358 C18.232,16.529 18.45,16.682 17.874,16.819 C16.102,18.217 13.750,18.524 11.721,17.723 C10.971,17.432 10.256,16.972 9.642,16.358 L12.284,13.714 C13.238,14.670 14.789,14.670 15.744,13.714 L17.772,11.686 L20.857,8.599 C21.811,7.643 21.811,6.91 20.857,5.137 C19.902,4.182 18.352,4.182 17.397,5.137 L14.943,7.593 C13.409,6.877 11.653,6.756 10.34,7.217 L14.755,2.493 C17.158,0.88 21.96,0.88 23.499,2.493 C25.919,4.914 25.919,8.836 23.499,11.242 ZM14.261,8.292 C15.11,8.582 15.727,9.42 16.340,9.656 L13.698,12.300 C12.744,11.345 11.193,11.345 10.239,12.300 L5.125,17.415 C4.171,18.371 4.171,19.922 5.125,20.878 C6.80,21.833 7.631,21.833 8.585,20.878 L10.937,18.524 C12.949,19.326 13.494,19.394 15.846,18.848 L11.227,23.521 C8.824,25.927 4.887,25.927 2.484,23.521 C0.80,21.116 0.80,17.177 2.484,14.773 L7.597,9.656 C7.665,9.588 7.750,9.503 7.835,9.434 C9.625,7.830 12.130,7.439 14.261,8.292 Z"/>
</svg>