<svg 
 xmlns="http://www.w3.org/2000/svg"
 xmlns:xlink="http://www.w3.org/1999/xlink"
 width="26px" height="25px">
<path fill-rule="evenodd"  fill="#ffffff"
 d="M25.456,24.171 C25.135,24.489 24.714,24.645 24.293,24.645 C23.872,24.645 23.451,24.488 23.130,24.171 L18.794,19.900 C16.902,21.347 14.534,22.218 11.958,22.218 C5.792,22.218 0.777,17.275 0.777,11.202 C0.777,5.128 5.792,0.185 11.958,0.185 C18.124,0.185 23.140,5.128 23.140,11.202 C23.140,13.572 22.370,15.764 21.72,17.563 L25.456,21.881 C26.98,22.514 26.98,23.540 25.456,24.171 ZM11.959,2.777 C7.244,2.777 3.408,6.557 3.408,11.202 C3.408,15.846 7.244,19.625 11.959,19.627 C14.64,19.627 15.990,18.870 17.481,17.623 C17.941,17.239 18.355,16.805 18.724,16.335 C19.840,14.913 20.510,13.134 20.510,11.202 C20.510,6.557 16.674,2.777 11.959,2.777 ZM16.810,9.580 C16.624,9.668 16.428,9.711 16.234,9.711 C15.747,9.711 15.279,9.444 15.51,8.982 C14.346,7.558 12.911,6.673 11.304,6.673 C10.577,6.673 9.988,6.94 9.988,5.376 C9.988,4.662 10.577,4.81 11.304,4.81 C13.924,4.81 16.267,5.524 17.416,7.847 C17.735,8.490 17.463,9.266 16.810,9.580 Z"/>
</svg>