<svg 
 xmlns="http://www.w3.org/2000/svg"
 xmlns:xlink="http://www.w3.org/1999/xlink"
 width="18px" height="24px">
<defs>
<filter id="Filter_0">
    <feFlood flood-color="rgb(255, 255, 255)" flood-opacity="1" result="floodOut" />
    <feComposite operator="atop" in="floodOut" in2="SourceGraphic" result="compOut" />
    <feBlend mode="normal" in="compOut" in2="SourceGraphic" />
</filter>

</defs>
<g filter="url(#Filter_0)">
<path fill-rule="evenodd"  fill="rgb(0, 0, 0)"
 d="M14.995,2.998 L13.496,2.998 C13.496,1.341 11.483,0.1 8.998,0.1 C6.514,0.1 4.500,1.341 4.500,2.998 L3.1,2.998 C1.345,2.998 0.3,4.341 0.3,5.997 L0.3,20.995 C0.3,22.651 1.345,23.994 3.1,23.994 L14.995,23.994 C16.651,23.994 17.994,22.651 17.994,20.995 L17.994,5.997 C17.994,4.341 16.651,2.998 14.995,2.998 ZM8.998,1.498 C10.655,1.498 11.997,1.962 11.997,2.998 L6.0,2.998 C6.0,1.962 7.342,1.498 8.998,1.498 ZM16.494,20.995 C16.494,21.823 15.823,22.494 14.995,22.494 L3.1,22.494 C2.173,22.494 1.502,21.823 1.502,20.995 L1.502,19.495 L16.494,19.495 L16.494,20.995 ZM16.494,17.995 L1.502,17.995 L1.502,5.997 C1.502,5.168 2.173,4.497 3.1,4.497 L4.500,4.497 L4.500,8.997 L6.0,8.997 L6.0,4.497 L11.997,4.497 L11.997,8.997 L13.496,8.997 L13.496,4.497 L14.995,4.497 C15.823,4.497 16.494,5.168 16.494,5.997 L16.494,17.995 Z"/>
</g>
</svg>