<svg 
 xmlns="http://www.w3.org/2000/svg"
 xmlns:xlink="http://www.w3.org/1999/xlink"
 width="24px" height="24px">
<defs>
<filter id="Filter_0">
    <feFlood flood-color="rgb(255, 255, 255)" flood-opacity="1" result="floodOut" />
    <feComposite operator="atop" in="floodOut" in2="SourceGraphic" result="compOut" />
    <feBlend mode="normal" in="compOut" in2="SourceGraphic" />
</filter>

</defs>
<g filter="url(#Filter_0)">
<path fill-rule="evenodd"  fill="rgb(0, 0, 0)"
 d="M23.762,22.681 L17.568,16.586 C19.190,14.824 20.186,12.493 20.186,9.928 C20.186,4.443 15.667,0.2 10.93,0.2 C4.518,0.2 0.0,4.443 0.0,9.928 C0.0,15.415 4.518,19.862 10.93,19.862 C12.501,19.862 14.710,19.28 16.445,17.643 L22.663,23.763 C22.966,24.61 23.458,24.61 23.761,23.763 C24.64,23.463 24.64,22.979 23.762,22.681 ZM10.93,18.333 C5.376,18.333 1.553,14.571 1.553,9.928 C1.553,5.288 5.376,1.524 10.93,1.524 C14.809,1.524 18.633,5.288 18.633,9.928 C18.633,14.571 14.809,18.333 10.93,18.333 Z"/>
</g>
</svg>