<svg 
 xmlns="http://www.w3.org/2000/svg"
 xmlns:xlink="http://www.w3.org/1999/xlink"
 width="64px" height="56px">
<defs>
<filter id="Filter_0">
    <feFlood flood-color="rgb(255, 255, 255)" flood-opacity="1" result="floodOut" />
    <feComposite operator="atop" in="floodOut" in2="SourceGraphic" result="compOut" />
    <feBlend mode="normal" in="compOut" in2="SourceGraphic" />
</filter>

</defs>
<g filter="url(#Filter_0)">
<path fill-rule="evenodd"  fill="rgb(0, 0, 0)"
 d="M52.873,55.127 L58.125,45.939 L63.377,55.127 L52.873,55.127 ZM46.303,45.171 L56.811,45.171 L51.557,54.359 L46.303,45.171 ZM51.557,34.450 L56.811,43.641 L46.303,43.641 L51.557,34.450 ZM39.737,33.686 L50.243,33.686 L44.989,42.874 L39.737,33.686 ZM44.989,22.966 L50.243,32.153 L39.737,32.153 L44.989,22.966 ZM33.168,22.201 L43.675,22.201 L38.421,31.389 L33.168,22.201 ZM38.421,11.479 L43.675,20.671 L33.168,20.671 L38.421,11.479 ZM26.600,10.713 L37.107,10.713 L31.854,19.904 L26.600,10.713 ZM31.854,0.6 L37.107,9.184 L26.600,9.184 L31.854,0.6 ZM20.32,20.671 L25.286,11.479 L30.540,20.671 L20.32,20.671 ZM13.464,32.153 L18.718,22.966 L23.971,32.153 L13.464,32.153 ZM6.896,43.641 L12.150,34.450 L17.403,43.641 L6.896,43.641 ZM0.331,55.127 L5.582,45.939 L10.835,55.127 L0.331,55.127 ZM17.403,45.171 L12.150,54.359 L6.896,45.171 L17.403,45.171 ZM23.971,33.686 L18.718,42.874 L13.464,33.686 L23.971,33.686 ZM30.540,22.201 L25.286,31.389 L20.32,22.201 L30.540,22.201 ZM37.107,55.127 L26.600,55.127 L31.854,45.939 L37.107,55.127 ZM43.675,45.171 L38.421,54.359 L33.168,45.171 L43.675,45.171 ZM50.243,55.127 L39.737,55.127 L44.989,45.939 L50.243,55.127 Z"/>
</g>
</svg>